<svg width="0" height="0" class="hidden">
  <symbol viewBox="0 1 511 511.999" xmlns="http://www.w3.org/2000/svg" id="001-home">
    <path d="M498.7 222.695c-.016-.011-.028-.027-.04-.039L289.805 13.81C280.902 4.902 269.066 0 256.477 0c-12.59 0-24.426 4.902-33.332 13.809L14.398 222.55c-.07.07-.144.144-.21.215-18.282 18.386-18.25 48.218.09 66.558 8.378 8.383 19.44 13.235 31.273 13.746.484.047.969.07 1.457.07h8.32v153.696c0 30.418 24.75 55.164 55.168 55.164h81.711c8.285 0 15-6.719 15-15V376.5c0-13.879 11.293-25.168 25.172-25.168h48.195c13.88 0 25.168 11.29 25.168 25.168V497c0 8.281 6.715 15 15 15h81.711c30.422 0 55.168-24.746 55.168-55.164V303.14h7.719c12.586 0 24.422-4.903 33.332-13.813 18.36-18.367 18.367-48.254.027-66.633zm-21.243 45.422a17.03 17.03 0 0 1-12.117 5.024h-22.72c-8.285 0-15 6.714-15 15v168.695c0 13.875-11.289 25.164-25.168 25.164h-66.71V376.5c0-30.418-24.747-55.168-55.169-55.168H232.38c-30.422 0-55.172 24.75-55.172 55.168V482h-66.71c-13.876 0-25.169-11.29-25.169-25.164V288.14c0-8.286-6.715-15-15-15H48a13.9 13.9 0 0 0-.703-.032c-4.469-.078-8.66-1.851-11.8-4.996-6.68-6.68-6.68-17.55 0-24.234.003 0 .003-.004.007-.008l.012-.012L244.363 35.02A17.003 17.003 0 0 1 256.477 30c4.574 0 8.875 1.781 12.113 5.02l208.8 208.796.098.094c6.645 6.692 6.633 17.54-.031 24.207zm0 0"></path>
  </symbol>
  <symbol viewBox="0 0 72 72" xmlns="http://www.w3.org/2000/svg" id="002-trello">
    <title>Trello</title>
    <g fill="none" fill-rule="evenodd">
      <path fill="#000" d="M0 72h72V0H0z"></path>
      <path d="M18 21v27a3 3 0 0 0 3 3h9a3 3 0 0 0 3-3V21a3 3 0 0 0-3-3h-9a3 3 0 0 0-3 3zm21 0v15a3 3 0 0 0 3 3h9a3 3 0 0 0 3-3V21a3 3 0 0 0-3-3h-9a3 3 0 0 0-3 3zm-21-9c-3.313 0-6 2.688-6 6v36c0 3.313 2.688 6 6 6h36c3.313 0 6-2.688 6-6V18c0-3.313-2.688-6-6-6H18z" fill="#FFF"></path>
    </g>
  </symbol>
  <symbol xmlns="http://www.w3.org/2000/svg" viewBox="0 0 511.999 511.999" id="003-search">
    <path d="M225.773.616C101.283.616 0 101.622 0 225.773S101.284 450.93 225.773 450.93s225.774-101.006 225.774-225.157S350.263.616 225.773.616zm0 413.301c-104.084 0-188.761-84.406-188.761-188.145 0-103.745 84.677-188.145 188.761-188.145s188.761 84.4 188.761 188.145c.001 103.739-84.676 188.145-188.761 188.145z"></path>
    <path d="M506.547 479.756L385.024 358.85c-7.248-7.205-18.963-7.174-26.174.068-7.205 7.248-7.174 18.962.068 26.174l121.523 120.906a18.457 18.457 0 0 0 13.053 5.385 18.45 18.45 0 0 0 13.121-5.453c7.205-7.249 7.174-18.963-.068-26.174z"></path>
  </symbol>
  <symbol viewBox="0 -10 511.987 511" xmlns="http://www.w3.org/2000/svg" id="004-star">
    <path d="M114.594 491.14c-5.61 0-11.18-1.75-15.934-5.187a27.223 27.223 0 0 1-10.582-28.094l32.938-145.09L9.312 214.81a27.188 27.188 0 0 1-7.976-28.907 27.208 27.208 0 0 1 23.402-18.71l147.797-13.419L230.97 17.027C235.277 6.98 245.089.492 255.992.492s20.715 6.488 25.024 16.512l58.433 136.77 147.774 13.417c10.882.98 20.054 8.344 23.425 18.711 3.372 10.368.254 21.739-7.957 28.907L390.988 312.75l32.938 145.086c2.414 10.668-1.727 21.7-10.578 28.098-8.832 6.398-20.61 6.89-29.91 1.3l-127.446-76.16-127.445 76.203c-4.309 2.559-9.11 3.864-13.953 3.864zm141.398-112.874c4.844 0 9.64 1.3 13.953 3.859l120.278 71.938-31.086-136.942a27.21 27.21 0 0 1 8.62-26.516l105.473-92.5-139.543-12.671a27.18 27.18 0 0 1-22.613-16.493L255.992 39.895 200.844 168.96c-3.883 9.195-12.524 15.512-22.547 16.43L38.734 198.062l105.47 92.5c7.554 6.614 10.858 16.77 8.62 26.54l-31.062 136.937 120.277-71.914c4.309-2.559 9.11-3.86 13.953-3.86zm-84.586-221.848s0 .023-.023.043zm169.13-.063l.023.043c0-.023 0-.023-.024-.043zm0 0"></path>
  </symbol>
  <symbol xmlns="http://www.w3.org/2000/svg" viewBox="0 0 512 512" id="005-plus">
    <path d="M492 236H276V20c0-11.046-8.954-20-20-20s-20 8.954-20 20v216H20c-11.046 0-20 8.954-20 20s8.954 20 20 20h216v216c0 11.046 8.954 20 20 20s20-8.954 20-20V276h216c11.046 0 20-8.954 20-20s-8.954-20-20-20z"></path>
  </symbol>
  <symbol xmlns="http://www.w3.org/2000/svg" viewBox="0 0 512 512" id="006-information">
    <path d="M256 0C114.497 0 0 114.507 0 256c0 141.503 114.507 256 256 256 141.503 0 256-114.507 256-256C512 114.497 397.492 0 256 0zm0 472c-119.393 0-216-96.615-216-216 0-119.393 96.615-216 216-216 119.393 0 216 96.615 216 216 0 119.393-96.616 216-216 216z"></path>
    <path d="M256 214.33c-11.046 0-20 8.954-20 20v128.793c0 11.046 8.954 20 20 20s20-8.955 20-20.001V234.33c0-11.046-8.954-20-20-20z"></path>
    <circle cx="256" cy="162.84" r="27"></circle>
  </symbol>
  <symbol xmlns="http://www.w3.org/2000/svg" viewBox="0 0 512 512" id="007-notification">
    <path d="M467.819 431.851l-36.651-61.056a181.486 181.486 0 0 1-25.835-93.312V224c0-82.325-67.008-149.333-149.333-149.333S106.667 141.675 106.667 224v53.483c0 32.875-8.939 65.131-25.835 93.312l-36.651 61.056a10.665 10.665 0 0 0-.149 10.731 10.704 10.704 0 0 0 9.301 5.419h405.333c3.84 0 7.403-2.069 9.301-5.419a10.665 10.665 0 0 0-.148-10.731zm-395.648-5.184l26.944-44.907A202.631 202.631 0 0 0 128 277.483V224c0-70.592 57.408-128 128-128s128 57.408 128 128v53.483c0 36.736 9.984 72.789 28.864 104.277l26.965 44.907H72.171z"></path>
    <path d="M256 0c-23.531 0-42.667 19.136-42.667 42.667v42.667C213.333 91.221 218.112 96 224 96s10.667-4.779 10.667-10.667V42.667c0-11.776 9.557-21.333 21.333-21.333s21.333 9.557 21.333 21.333v42.667C277.333 91.221 282.112 96 288 96s10.667-4.779 10.667-10.667V42.667C298.667 19.136 279.531 0 256 0zm46.165 431.936c-3.008-5.077-9.515-6.741-14.613-3.819-5.099 2.987-6.805 9.536-3.819 14.613 2.773 4.715 4.288 10.368 4.288 15.936 0 17.643-14.357 32-32 32s-32-14.357-32-32c0-5.568 1.515-11.221 4.288-15.936 2.965-5.099 1.259-11.627-3.819-14.613-5.141-2.923-11.627-1.259-14.613 3.819-4.715 8.064-7.211 17.301-7.211 26.731C202.667 488.085 226.581 512 256 512s53.333-23.915 53.376-53.333c0-9.43-2.496-18.667-7.211-26.731z"></path>
  </symbol>
  <symbol xmlns="http://www.w3.org/2000/svg" viewBox="0 0 379.794 379.794" id="008-lock">
    <path d="M305.901 163.69v-47.686C305.901 52.039 253.862 0 189.897 0S73.893 52.039 73.893 116.004v47.236c-7.213 2.752-14.349 8.96-14.349 21.258v64.942c0 71.877 58.477 130.354 130.354 130.354S320.25 321.317 320.25 249.44v-64.942c0-11.669-6.961-17.855-14.349-20.808zm-91.228 139.542c.408 2.162-1.058 3.931-3.258 3.931H168.87c-2.2 0-3.666-1.769-3.258-3.931l6.814-36.114c-5.201-4.743-8.465-11.574-8.465-19.167 0-14.324 11.612-25.936 25.936-25.936s25.936 11.612 25.936 25.936c0 7.387-3.093 14.047-8.049 18.771l6.889 36.51zm51.228-141.857H113.893v-45.371c0-41.908 34.095-76.004 76.004-76.004 41.908 0 76.004 34.096 76.004 76.004v45.371z"></path>
  </symbol>
  <symbol xmlns="http://www.w3.org/2000/svg" viewBox="0 0 512 512" id="009-group">
    <path d="M437 268.152h-50.118c-6.821 0-13.425.932-19.71 2.646-12.398-24.372-37.71-41.118-66.877-41.118h-88.59c-29.167 0-54.479 16.746-66.877 41.118a74.798 74.798 0 0 0-19.71-2.646H75c-41.355 0-75 33.645-75 75v80.118c0 24.813 20.187 45 45 45h422c24.813 0 45-20.187 45-45v-80.118c0-41.355-33.645-75-75-75zm-300.295 36.53v133.589H45c-8.271 0-15-6.729-15-15v-80.118c0-24.813 20.187-45 45-45h50.118c4.072 0 8.015.553 11.769 1.572a75.372 75.372 0 0 0-.182 4.957zm208.59 133.589h-178.59v-133.59c0-24.813 20.187-45 45-45h88.59c24.813 0 45 20.187 45 45v133.59zm136.705-15c0 8.271-6.729 15-15 15h-91.705v-133.59a75.32 75.32 0 0 0-.182-4.957 44.899 44.899 0 0 1 11.769-1.572H437c24.813 0 45 20.187 45 45v80.119z"></path>
    <path d="M100.06 126.504c-36.749 0-66.646 29.897-66.646 66.646-.001 36.749 29.897 66.646 66.646 66.646 36.748 0 66.646-29.897 66.646-66.646s-29.897-66.646-66.646-66.646zm-.001 103.292c-20.207 0-36.646-16.439-36.646-36.646s16.439-36.646 36.646-36.646 36.646 16.439 36.646 36.646-16.439 36.646-36.646 36.646zM256 43.729c-49.096 0-89.038 39.942-89.038 89.038s39.942 89.038 89.038 89.038 89.038-39.942 89.038-89.038c0-49.095-39.942-89.038-89.038-89.038zm0 148.076c-32.554 0-59.038-26.484-59.038-59.038 0-32.553 26.484-59.038 59.038-59.038s59.038 26.484 59.038 59.038c0 32.554-26.484 59.038-59.038 59.038zm155.94-65.301c-36.748 0-66.646 29.897-66.646 66.646.001 36.749 29.898 66.646 66.646 66.646 36.749 0 66.646-29.897 66.646-66.646s-29.897-66.646-66.646-66.646zm0 103.292c-20.206 0-36.646-16.439-36.646-36.646.001-20.207 16.44-36.646 36.646-36.646 20.207 0 36.646 16.439 36.646 36.646s-16.439 36.646-36.646 36.646z"></path>
  </symbol>
  <symbol xmlns="http://www.w3.org/2000/svg" viewBox="0 0 220.682 220.682" id="010-two-arrows-pointing-up">
    <path d="M110.341 0L10.639 99.703l28.285 28.283 71.417-71.418 71.417 71.418 28.285-28.283z"></path>
    <path d="M110.341 92.695l-99.702 99.701 28.285 28.286 71.417-71.418 71.417 71.418 28.285-28.286z"></path>
  </symbol>
</svg>